<svg xmlns="http://www.w3.org/2000/svg" width="30" height="17.151" viewBox="0 0 30 17.151">
  <g id="Icon_ionic-ios-arrow-back" data-name="Icon ionic-ios-arrow-back" transform="translate(-6.194 28.402) rotate(-90)" fill="#fff">
    <path d="M 26.24481964111328 35.69364929199219 C 25.80245971679688 35.69364929199219 25.38883018493652 35.52363967895508 25.08012008666992 35.21493911743164 L 12.17453670501709 22.28257369995117 C 11.58732223510742 21.63295555114746 11.61028671264648 20.64331436157227 12.22856044769287 20.02504920959473 L 25.08893013000488 7.173609733581543 C 25.4011402130127 6.864729881286621 25.8170108795166 6.693649768829346 26.25815963745117 6.693649768829346 C 26.69696044921875 6.693649768829346 27.10902976989746 6.864059925079346 27.41846084594727 7.173490047454834 C 27.72953987121582 7.481269836425781 27.90046119689941 7.889899730682373 27.90163040161133 8.325969696044922 C 27.90281105041504 8.766400337219238 27.73121070861816 9.18118953704834 27.41846084594727 9.493949890136719 L 16.06742095947266 20.83605003356934 L 15.71372032165527 21.18946075439453 L 16.06714057922363 21.54314994812012 L 27.40937995910645 32.89432144165039 C 27.72060966491699 33.2022590637207 27.89153099060059 33.61088180541992 27.8927001953125 34.04695129394531 C 27.89387130737305 34.48738098144531 27.72228050231934 34.90217971801758 27.40952110290527 35.21493911743164 C 27.10081100463867 35.52363967895508 26.68717956542969 35.69364929199219 26.24481964111328 35.69364929199219 Z" stroke="none"/>
    <path d="M 26.24481964111328 35.19364929199219 C 26.55363082885742 35.19364929199219 26.84169960021973 35.07564926147461 27.05595970153809 34.86138153076172 C 27.27392959594727 34.6434211730957 27.39352035522461 34.35464859008789 27.3927001953125 34.04827880859375 C 27.39188957214355 33.74628067016602 27.27365112304688 33.46340942382812 27.05974960327148 33.25178909301758 L 27.05569076538086 33.24774169921875 L 15.00662040710449 21.18918037414551 L 27.06490135192871 9.140390396118164 C 27.28285980224609 8.922430038452148 27.40245056152344 8.633669853210449 27.40163040161133 8.327309608459473 C 27.40081977844238 8.025289535522461 27.2825813293457 7.742419719696045 27.06869125366211 7.530799865722656 L 27.06491088867188 7.527050018310547 C 26.84991073608398 7.312049865722656 26.56340026855469 7.193649768829346 26.25815963745117 7.193649768829346 C 25.95025825500488 7.193649768829346 25.65987777709961 7.312857151031494 25.44029235839844 7.529345989227295 L 12.58211040496826 20.37859916687012 C 12.15540504455566 20.80529594421387 12.13745498657227 21.48719787597656 12.53802490234375 21.9389820098877 L 25.43367958068848 34.86138153076172 C 25.64793968200684 35.07564926147461 25.93601036071777 35.19364929199219 26.24481964111328 35.19364929199219 M 26.24481964111328 36.19364929199219 C 25.70004081726074 36.19364929199219 25.14632034301758 35.98823928833008 24.72657012939453 35.56848907470703 L 11.81249046325684 22.62762069702148 C 11.04443073272705 21.78812026977539 11.06229019165039 20.48419952392578 11.87501049041748 19.67148971557617 L 24.73550033569336 6.819930076599121 C 25.57499885559082 5.989359855651855 26.93249702453613 5.980429172515869 27.77201080322266 6.819930076599121 C 28.61151123046875 7.650509834289551 28.61151123046875 9.008000373840332 27.77201080322266 9.847499847412109 L 16.42082977294922 21.18973922729492 L 27.76307106018066 32.54090881347656 C 28.60258102416992 33.37149047851562 28.60258102416992 34.72898101806641 27.76307106018066 35.56848907470703 C 27.34332084655762 35.98823928833008 26.78960037231445 36.19364929199219 26.24481964111328 36.19364929199219 Z" stroke="none" fill="#1f8461"/>
  </g>
</svg>
