<svg xmlns="http://www.w3.org/2000/svg" width="6.787" height="12.001" viewBox="0 0 6.787 12.001">
  <path id="Icon_material-attach-money" data-name="Icon material-attach-money" d="M13.134,9.767c-1.513-.393-2-.8-2-1.433,0-.727.673-1.233,1.8-1.233,1.187,0,1.627.567,1.667,1.4h1.473a2.658,2.658,0,0,0-2.14-2.54V4.5h-2V5.94A2.6,2.6,0,0,0,9.6,8.347c0,1.54,1.273,2.307,3.134,2.753,1.667.4,2,.987,2,1.607,0,.46-.327,1.193-1.8,1.193-1.373,0-1.913-.613-1.987-1.4H9.48a2.793,2.793,0,0,0,2.453,2.553V16.5h2V15.067c1.3-.247,2.333-1,2.333-2.367C16.267,10.807,14.647,10.16,13.134,9.767Z" transform="translate(-9.48 -4.5)" fill="#fff"/>
</svg>
