<svg xmlns="http://www.w3.org/2000/svg" width="18.514" height="18.514" viewBox="0 0 18.514 18.514">
  <path id="Icon_awesome-phone-alt" data-name="Icon awesome-phone-alt" d="M17.986,13.083l-4.05-1.736a.868.868,0,0,0-1.012.25L11.13,13.788A13.4,13.4,0,0,1,4.722,7.381L6.914,5.587a.866.866,0,0,0,.25-1.012L5.428.525a.874.874,0,0,0-.994-.5L.673.89A.868.868,0,0,0,0,1.736,16.776,16.776,0,0,0,16.778,18.514a.868.868,0,0,0,.846-.673l.868-3.761a.878.878,0,0,0-.507-1Z" transform="translate(0 0)" fill="#fff"/>
</svg>
