<svg xmlns="http://www.w3.org/2000/svg" width="20" height="24.375" viewBox="0 0 20 24.375">
  <path id="Icon_material-notifications-none" data-name="Icon material-notifications-none" d="M16,28.125a2.507,2.507,0,0,0,2.5-2.5h-5A2.507,2.507,0,0,0,16,28.125Zm7.5-7.5v-6.25c0-3.838-2.038-7.05-5.625-7.9v-.85a1.875,1.875,0,1,0-3.75,0v.85c-3.575.85-5.625,4.05-5.625,7.9v6.25L6,23.125v1.25H26v-1.25ZM21,21.875H11v-7.5c0-3.1,1.888-5.625,5-5.625s5,2.525,5,5.625Z" transform="translate(-6 -3.75)" fill="#fff"/>
</svg>
