<svg xmlns="http://www.w3.org/2000/svg" width="17.387" height="15" viewBox="0 0 17.387 15">
  <path id="Icon_material-shopping-basket" data-name="Icon material-shopping-basket" d="M14.311,8.546,10.849,3.362a.784.784,0,0,0-.656-.332.772.772,0,0,0-.656.34L6.076,8.546H2.29a.793.793,0,0,0-.79.79.666.666,0,0,0,.032.213l2.007,7.326A1.572,1.572,0,0,0,5.056,18.03H15.33a1.588,1.588,0,0,0,1.525-1.154L18.863,9.55l.024-.213a.793.793,0,0,0-.79-.79Zm-6.488,0,2.371-3.477,2.371,3.477Zm2.371,6.322a1.581,1.581,0,1,1,1.581-1.581A1.585,1.585,0,0,1,10.193,14.869Z" transform="translate(-1.5 -3.03)" fill="#fff"/>
</svg>
