<svg xmlns="http://www.w3.org/2000/svg" width="10.5" height="12.001" viewBox="0 0 10.5 12.001">
  <path id="Icon_awesome-chair" data-name="Icon awesome-chair" d="M2.624,3a1.87,1.87,0,0,1,.938-1.615V6H4.687V1.125H5.812V6H6.937V1.385A1.87,1.87,0,0,1,7.874,3V6H9V3A3,3,0,0,0,6,0H4.5a3,3,0,0,0-3,3V6H2.624ZM10.46,8.014l-.251-.75A.751.751,0,0,0,9.5,6.75H1a.751.751,0,0,0-.713.513l-.251.75A.752.752,0,0,0,.749,9v2.625A.376.376,0,0,0,1.124,12h.75a.376.376,0,0,0,.375-.375V9h6v2.625A.376.376,0,0,0,8.624,12h.75a.376.376,0,0,0,.375-.375V9A.75.75,0,0,0,10.46,8.014Z" transform="translate(0.002)" fill="#fff"/>
</svg>
