<svg xmlns="http://www.w3.org/2000/svg" width="14.997" height="15" viewBox="0 0 14.997 15">
  <path id="Icon_awesome-compress-arrows-alt" data-name="Icon awesome-compress-arrows-alt" d="M5.861,8.44H2.58a.7.7,0,0,0-.5,1.2l.964.908L.14,13.458a.47.47,0,0,0,0,.662l.744.744a.47.47,0,0,0,.662,0l2.909-2.909.911.967a.7.7,0,0,0,1.2-.5V9.143A.7.7,0,0,0,5.861,8.44ZM9.143,6.565h3.281a.7.7,0,0,0,.5-1.2l-.967-.908,2.909-2.909a.47.47,0,0,0,0-.662L14.12.14a.47.47,0,0,0-.662,0L10.549,3.049l-.911-.967a.7.7,0,0,0-1.2.5V5.861A.7.7,0,0,0,9.143,6.565Zm2.812,3.984.967-.911a.7.7,0,0,0-.5-1.2H9.143a.7.7,0,0,0-.7.7v3.281a.7.7,0,0,0,1.2.5l.908-.964,2.909,2.909a.47.47,0,0,0,.662,0l.744-.744a.47.47,0,0,0,0-.662ZM5.363,2.085l-.908.964L1.546.14a.47.47,0,0,0-.662,0L.14.884a.47.47,0,0,0,0,.662L3.049,4.455l-.967.911a.7.7,0,0,0,.5,1.2H5.861a.7.7,0,0,0,.7-.7V2.58A.7.7,0,0,0,5.363,2.085Z" transform="translate(-0.004 -0.004)" fill="#fff"/>
</svg>
