<svg xmlns="http://www.w3.org/2000/svg" width="14.996" height="15" viewBox="0 0 14.996 15">
  <path id="Icon_ionic-ios-settings" data-name="Icon ionic-ios-settings" d="M18.258,12A1.93,1.93,0,0,1,19.5,10.2a7.649,7.649,0,0,0-.926-2.23,1.956,1.956,0,0,1-.785.168,1.925,1.925,0,0,1-1.761-2.71A7.626,7.626,0,0,0,13.8,4.5a1.928,1.928,0,0,1-3.6,0,7.649,7.649,0,0,0-2.23.926,1.925,1.925,0,0,1-1.761,2.71,1.892,1.892,0,0,1-.785-.168A7.818,7.818,0,0,0,4.5,10.2a1.929,1.929,0,0,1,0,3.6,7.649,7.649,0,0,0,.926,2.23,1.926,1.926,0,0,1,2.542,2.542,7.694,7.694,0,0,0,2.23.926,1.925,1.925,0,0,1,3.593,0,7.649,7.649,0,0,0,2.23-.926,1.928,1.928,0,0,1,2.542-2.542,7.694,7.694,0,0,0,.926-2.23A1.939,1.939,0,0,1,18.258,12Zm-6.225,3.12a3.124,3.124,0,1,1,3.124-3.124A3.123,3.123,0,0,1,12.033,15.118Z" transform="translate(-4.5 -4.5)" fill="#fff"/>
</svg>
